<?xml version="1.0" standalone="no"?>
<!DOCTYPE svg PUBLIC "-//W3C//DTD SVG 20010904//EN"
 "http://www.w3.org/TR/2001/REC-SVG-20010904/DTD/svg10.dtd">
<svg version="1.0" xmlns="http://www.w3.org/2000/svg"
 width="512.000000pt" height="512.000000pt" viewBox="0 0 512.000000 512.000000"
 preserveAspectRatio="xMidYMid meet">

<g transform="translate(0.000000,512.000000) scale(0.100000,-0.100000)"
fill="#000000" stroke="none">
<path d="M3414 4786 c-75 -24 -182 -115 -280 -240 -28 -35 -36 -40 -70 -39
-22 1 -70 3 -109 4 -136 5 -241 -74 -316 -236 l-39 -85 25 -87 c14 -48 30
-118 36 -157 6 -39 12 -86 15 -103 3 -18 10 -33 16 -33 25 0 150 -83 209 -139
l62 -59 56 61 c153 165 389 287 666 344 73 15 138 18 343 18 l253 0 -6 40
c-11 70 -71 179 -126 229 -64 58 -137 85 -269 100 -58 7 -111 15 -117 19 -5 4
-25 44 -43 89 -86 218 -189 311 -306 274z m67 -149 c45 -30 61 -63 56 -115
-11 -107 -135 -147 -206 -66 -42 47 -43 108 -4 154 46 55 99 64 154 27z m459
-312 c42 -21 60 -53 60 -103 0 -37 -6 -50 -34 -78 -29 -29 -41 -34 -80 -34
-59 0 -104 37 -113 92 -15 98 80 168 167 123z m-496 -49 c47 -20 76 -61 76
-108 0 -82 -57 -135 -133 -125 -119 16 -144 185 -34 232 41 18 50 18 91 1z
m-497 -42 c51 -33 72 -110 44 -163 -18 -32 -70 -61 -114 -61 -29 0 -46 8 -75
34 -33 31 -37 39 -37 84 0 104 98 161 182 106z"/>
<path d="M2541 3933 c0 -36 3 -63 9 -63 11 0 11 50 0 95 -6 24 -8 17 -9 -32z"/>
<path d="M3836 3890 c-311 -36 -582 -168 -725 -354 l-42 -55 25 -78 c13 -44
28 -111 31 -151 l8 -72 177 0 178 0 6 24 c7 29 536 473 575 483 51 13 109 -48
95 -102 -4 -17 -77 -84 -230 -212 -123 -102 -224 -188 -224 -190 0 -1 155 -3
343 -3 l344 0 36 108 c60 175 78 264 84 414 l6 136 -54 11 c-190 39 -484 58
-633 41z"/>
<path d="M2540 3496 c0 -151 4 -236 10 -236 6 0 10 83 10 229 0 143 -4 232
-10 236 -7 4 -10 -75 -10 -229z"/>
<path d="M2580 3491 l0 -231 215 0 c245 0 230 -7 196 93 -61 176 -196 302
-388 361 l-23 7 0 -230z"/>
<path d="M2540 2730 c0 -193 4 -300 10 -300 6 0 10 107 10 300 0 193 -4 300
-10 300 -6 0 -10 -107 -10 -300z"/>
<path d="M2580 2730 l0 -300 1044 0 c579 0 1047 4 1050 9 14 21 37 214 39 315
1 96 -2 117 -20 151 -24 46 -54 75 -103 101 -33 18 -80 19 -1022 22 l-988 2 0
-300z"/>
<path d="M2540 1740 c0 -347 3 -530 10 -530 7 0 10 183 10 530 0 347 -3 530
-10 530 -7 0 -10 -183 -10 -530z"/>
<path d="M2580 1740 l0 -530 529 0 c619 0 589 -4 748 105 250 172 450 375 598
603 50 78 149 279 161 325 l6 27 -1021 0 -1021 0 0 -530z"/>
<path d="M2540 685 c0 -237 4 -365 10 -365 6 0 10 128 10 365 0 237 -4 365
-10 365 -6 0 -10 -128 -10 -365z"/>
<path d="M2580 684 l0 -365 413 3 c404 3 413 4 470 27 79 31 157 110 187 188
20 50 24 82 28 239 5 201 -2 244 -44 263 -18 8 -174 11 -539 11 l-515 0 0
-366z"/>
</g>
</svg>
