<svg width="84" height="16" viewBox="0 0 84 16" fill="none" xmlns="http://www.w3.org/2000/svg">
<path d="M4.12313 9.968C4.12313 10.2667 4.19246 10.416 4.33113 10.416C4.56579 10.416 4.85379 10.3467 5.19513 10.208L5.54713 11.104C4.56579 11.8293 3.61646 12.192 2.69913 12.192C2.16579 12.192 1.73913 12.0427 1.41913 11.744C1.10979 11.4347 0.955125 11.0027 0.955125 10.448C0.955125 9.89333 1.22713 8.64 1.77113 6.688C2.31513 4.72533 2.61379 3.36 2.66713 2.592C2.66713 2.41067 2.60846 2.21333 2.49113 2C2.37379 1.78667 2.26179 1.616 2.15513 1.488L1.97913 1.296L2.01113 0.976C2.68313 0.752 3.87246 0.639999 5.57913 0.639999C5.74979 0.96 5.83513 1.30133 5.83513 1.664C5.83513 2.28267 5.54713 3.632 4.97113 5.712C4.40579 7.792 4.12313 9.21067 4.12313 9.968ZM6.81638 12.096H6.54438C6.54438 11.4347 6.69371 10.432 6.99238 9.088C7.30171 7.744 7.45638 6.97067 7.45638 6.768C7.45638 6.56533 7.40838 6.368 7.31238 6.176C7.21638 5.984 7.12038 5.84 7.02438 5.744L6.88038 5.6L6.91238 5.36C7.54171 5.15733 8.64038 5.056 10.2084 5.056C10.315 5.30133 10.3897 5.55733 10.4324 5.824C11.403 5.22667 12.219 4.928 12.8804 4.928C13.3284 4.928 13.6804 5.07733 13.9364 5.376C14.1924 5.664 14.3204 6.016 14.3204 6.432C14.3204 6.83733 14.203 7.49333 13.9684 8.4C13.7337 9.30667 13.6164 9.89867 13.6164 10.176C13.6164 10.4427 13.6537 10.576 13.7284 10.576L14.5764 10.352L14.8644 11.152C14.523 11.408 14.075 11.648 13.5204 11.872C12.9764 12.0853 12.475 12.192 12.0164 12.192C11.1097 12.192 10.6564 11.7227 10.6564 10.784C10.6564 10.3787 10.7684 9.71733 10.9924 8.8C11.2164 7.88267 11.3284 7.312 11.3284 7.088C11.3284 6.85333 11.2537 6.736 11.1044 6.736C10.9124 6.736 10.6564 6.84267 10.3364 7.056C10.2937 7.248 10.187 7.712 10.0164 8.448C9.67504 9.99467 9.50438 11.1093 9.50438 11.792C8.98171 11.9947 8.08571 12.096 6.81638 12.096ZM19.3398 11.312C18.5931 11.7173 17.9264 11.92 17.3398 11.92C16.7638 11.92 16.2784 11.6907 15.8838 11.232C15.4998 10.7627 15.3078 10.0693 15.3078 9.152C15.3078 7.92533 15.6384 6.912 16.2998 6.112C16.9718 5.312 17.7718 4.912 18.6998 4.912C19.1478 4.912 19.6544 5.03467 20.2198 5.28C20.8811 5.07733 21.6331 4.976 22.4758 4.976H22.7478C22.8011 5.08267 22.8278 5.32267 22.8278 5.696C22.8278 6.05867 22.7584 6.77867 22.6198 7.856C22.4918 8.93333 22.3478 9.83467 22.1878 10.56C21.8464 12.1067 21.3131 13.328 20.5878 14.224C19.8731 15.1307 18.9718 15.584 17.8838 15.584C17.3504 15.584 16.9131 15.4667 16.5718 15.232C16.2411 14.9973 16.0758 14.6987 16.0758 14.336C16.0758 13.9733 16.1611 13.6693 16.3318 13.424C16.5131 13.1893 16.7691 12.992 17.0998 12.832C17.6651 12.5547 18.3584 12.3253 19.1798 12.144L19.3398 11.312ZM19.4358 6.208C19.0624 6.208 18.7744 6.528 18.5718 7.168C18.3798 7.808 18.2838 8.50133 18.2838 9.248C18.2838 9.99467 18.4598 10.368 18.8118 10.368C18.9611 10.368 19.1798 10.2933 19.4678 10.144C19.5531 9.28 19.6918 8 19.8838 6.304C19.7238 6.24 19.5744 6.208 19.4358 6.208ZM17.6118 14.4C17.8144 14.4 18.0438 14.2987 18.2998 14.096C18.5664 13.8933 18.7851 13.5627 18.9557 13.104C17.7931 13.3067 17.2118 13.616 17.2118 14.032C17.2331 14.2773 17.3664 14.4 17.6118 14.4ZM23.7528 12.096H23.6248C23.5928 11.9467 23.5768 11.7173 23.5768 11.408C23.5768 11.088 23.7048 10.272 23.9608 8.96C24.2274 7.63733 24.3608 6.89067 24.3608 6.72C24.3608 6.53867 24.3128 6.35733 24.2168 6.176C24.1208 5.984 24.0248 5.84 23.9288 5.744L23.7848 5.6L23.8168 5.36C24.4568 5.15733 25.5181 5.056 27.0008 5.056C27.1394 5.32267 27.2248 5.63733 27.2568 6C27.9074 5.27467 28.4834 4.912 28.9848 4.912C29.6354 4.912 29.9928 5.46133 30.0568 6.56C30.0354 6.58133 30.0088 6.61867 29.9768 6.672C29.9448 6.71467 29.8701 6.79467 29.7528 6.912C29.6354 7.02933 29.5128 7.136 29.3848 7.232C29.0221 7.47733 28.6381 7.62133 28.2328 7.664C28.2221 7.664 28.1474 7.54667 28.0088 7.312C27.8808 7.07733 27.7688 6.96 27.6727 6.96C27.5874 6.96 27.4221 7.056 27.1768 7.248C27.1448 7.44 27.0808 7.76533 26.9848 8.224C26.8994 8.68267 26.8301 9.06133 26.7768 9.36C26.6168 10.1493 26.5368 10.8107 26.5368 11.344L26.5528 11.824C26.0834 12.0053 25.1501 12.096 23.7528 12.096ZM29.5544 9.104C29.5544 7.78133 29.9544 6.752 30.7544 6.016C31.565 5.28 32.5624 4.912 33.7464 4.912C34.5677 4.912 35.2237 5.09333 35.7144 5.456C36.2157 5.808 36.4664 6.28267 36.4664 6.88C36.4664 7.31733 36.333 7.70667 36.0664 8.048C35.7997 8.38933 35.4744 8.65067 35.0904 8.832C34.2797 9.19467 33.5757 9.41333 32.9784 9.488L32.5784 9.536C32.6957 10.24 33.0477 10.592 33.6344 10.592C33.8904 10.592 34.173 10.5387 34.4824 10.432C34.7917 10.3147 35.037 10.1973 35.2184 10.08L35.4904 9.92L36.0024 10.608C36.0024 10.608 35.9437 10.6667 35.8264 10.784C35.7624 10.848 35.6077 10.976 35.3624 11.168C35.1277 11.3493 34.877 11.5093 34.6104 11.648C34.3544 11.7867 34.0237 11.9093 33.6184 12.016C33.213 12.1333 32.8077 12.192 32.4024 12.192C31.4957 12.192 30.7917 11.9307 30.2904 11.408C29.7997 10.8747 29.5544 10.1067 29.5544 9.104ZM32.5144 8.48C32.8237 8.43733 33.133 8.18667 33.4424 7.728C33.7517 7.25867 33.9064 6.86933 33.9064 6.56C33.9064 6.24 33.8157 6.08 33.6344 6.08C33.3677 6.08 33.1224 6.288 32.8984 6.704C32.6744 7.12 32.5464 7.712 32.5144 8.48ZM42.2351 12.192C41.5738 12.192 41.1471 11.936 40.9551 11.424C40.1445 11.936 39.4191 12.192 38.7791 12.192C38.1498 12.192 37.6378 11.9787 37.2431 11.552C36.8591 11.1147 36.6671 10.4107 36.6671 9.44C36.6671 8.17067 36.9871 7.09867 37.6271 6.224C38.2778 5.34933 39.1151 4.912 40.1391 4.912C40.6405 4.912 41.1418 5.02933 41.6431 5.264C42.0378 3.46133 42.2351 2.16533 42.2351 1.376C42.2351 1.14133 42.2191 0.906666 42.1871 0.672C43.1791 0.394666 44.1338 0.256 45.0511 0.256C45.1365 0.394666 45.1791 0.725333 45.1791 1.248C45.1791 1.76 44.9338 3.14667 44.4431 5.408C43.9631 7.66933 43.7231 9.184 43.7231 9.952C43.7231 10.3573 43.7925 10.56 43.9311 10.56L44.6191 10.336L44.9071 11.152C43.9685 11.8453 43.0778 12.192 42.2351 12.192ZM40.1391 10.576C40.3311 10.576 40.5445 10.512 40.7791 10.384V10.368C40.8218 9.504 41.0298 8.144 41.4031 6.288C41.1898 6.224 41.0351 6.192 40.9391 6.192C40.7151 6.192 40.5178 6.304 40.3471 6.528C40.1765 6.752 40.0431 7.04 39.9471 7.392C39.7658 8.11733 39.6751 8.832 39.6751 9.536C39.6751 10.2293 39.8298 10.576 40.1391 10.576ZM49.179 6C49.179 6.46933 49.0457 7.2 48.779 8.192C48.5123 9.17333 48.379 9.81333 48.379 10.112C48.379 10.4107 48.4377 10.56 48.555 10.56C48.6723 10.56 48.8857 10.5067 49.195 10.4L49.339 10.336L49.627 11.136C49.2643 11.4133 48.811 11.6587 48.267 11.872C47.7337 12.0853 47.2483 12.192 46.811 12.192C46.3737 12.192 46.027 12.0693 45.771 11.824C45.5257 11.5787 45.403 11.2267 45.403 10.768C45.403 10.2987 45.531 9.58933 45.787 8.64C46.0537 7.68 46.187 7.072 46.187 6.816C46.187 6.42133 46.0483 6.048 45.771 5.696L45.643 5.52L45.691 5.248C46.2457 5.07733 47.323 4.992 48.923 4.992C49.0937 5.184 49.179 5.52 49.179 6ZM47.979 3.744C47.499 3.744 47.1203 3.616 46.843 3.36C46.5763 3.104 46.443 2.77867 46.443 2.384C46.443 1.97867 46.6083 1.64267 46.939 1.376C47.2803 1.09867 47.691 0.959999 48.171 0.959999C48.651 0.959999 49.0243 1.072 49.291 1.296C49.5577 1.52 49.691 1.83467 49.691 2.24C49.691 2.64533 49.5257 2.99733 49.195 3.296C48.875 3.59467 48.4697 3.744 47.979 3.744ZM49.9919 9.104C49.9919 7.78133 50.3919 6.752 51.1919 6.016C52.0025 5.28 52.9999 4.912 54.1839 4.912C55.0052 4.912 55.6612 5.09333 56.1519 5.456C56.6532 5.808 56.9039 6.28267 56.9039 6.88C56.9039 7.31733 56.7705 7.70667 56.5039 8.048C56.2372 8.38933 55.9119 8.65067 55.5279 8.832C54.7172 9.19467 54.0132 9.41333 53.4159 9.488L53.0159 9.536C53.1332 10.24 53.4852 10.592 54.0719 10.592C54.3279 10.592 54.6105 10.5387 54.9199 10.432C55.2292 10.3147 55.4745 10.1973 55.6559 10.08L55.9279 9.92L56.4399 10.608C56.4399 10.608 56.3812 10.6667 56.2639 10.784C56.1999 10.848 56.0452 10.976 55.7999 11.168C55.5652 11.3493 55.3145 11.5093 55.0479 11.648C54.7919 11.7867 54.4612 11.9093 54.0559 12.016C53.6505 12.1333 53.2452 12.192 52.8399 12.192C51.9332 12.192 51.2292 11.9307 50.7279 11.408C50.2372 10.8747 49.9919 10.1067 49.9919 9.104ZM52.9519 8.48C53.2612 8.43733 53.5705 8.18667 53.8799 7.728C54.1892 7.25867 54.3439 6.86933 54.3439 6.56C54.3439 6.24 54.2532 6.08 54.0719 6.08C53.8052 6.08 53.5599 6.288 53.3359 6.704C53.1119 7.12 52.9839 7.712 52.9519 8.48ZM57.4726 12.096H57.2006C57.2006 11.4347 57.35 10.432 57.6486 9.088C57.958 7.744 58.1126 6.97067 58.1126 6.768C58.1126 6.56533 58.0646 6.368 57.9686 6.176C57.8726 5.984 57.7766 5.84 57.6806 5.744L57.5366 5.6L57.5686 5.36C58.198 5.15733 59.2966 5.056 60.8646 5.056C60.9713 5.30133 61.046 5.55733 61.0886 5.824C62.0593 5.22667 62.8753 4.928 63.5366 4.928C63.9846 4.928 64.3366 5.07733 64.5926 5.376C64.8486 5.664 64.9766 6.016 64.9766 6.432C64.9766 6.83733 64.8593 7.49333 64.6246 8.4C64.39 9.30667 64.2726 9.89867 64.2726 10.176C64.2726 10.4427 64.31 10.576 64.3846 10.576L65.2326 10.352L65.5206 11.152C65.1793 11.408 64.7313 11.648 64.1766 11.872C63.6326 12.0853 63.1313 12.192 62.6726 12.192C61.766 12.192 61.3126 11.7227 61.3126 10.784C61.3126 10.3787 61.4246 9.71733 61.6486 8.8C61.8726 7.88267 61.9846 7.312 61.9846 7.088C61.9846 6.85333 61.91 6.736 61.7606 6.736C61.5686 6.736 61.3126 6.84267 60.9926 7.056C60.95 7.248 60.8433 7.712 60.6726 8.448C60.3313 9.99467 60.1606 11.1093 60.1606 11.792C59.638 11.9947 58.742 12.096 57.4726 12.096ZM71.452 6.336L70.076 6.224C69.6493 8.13333 69.4147 9.24267 69.372 9.552C69.34 9.86133 69.324 10.1173 69.324 10.32C69.324 10.512 69.388 10.608 69.516 10.608C69.6653 10.608 69.948 10.512 70.364 10.32L70.748 11.088C70.4067 11.3973 69.9747 11.6587 69.452 11.872C68.9293 12.0853 68.4227 12.192 67.932 12.192C67.452 12.192 67.068 12.0693 66.78 11.824C66.492 11.568 66.348 11.2107 66.348 10.752C66.348 10.2933 66.4813 9.55733 66.748 8.544C67.0147 7.53067 67.1907 6.77867 67.276 6.288C67.02 6.30933 66.6413 6.34667 66.14 6.4C66.0973 6.176 66.076 5.968 66.076 5.776C66.076 5.57333 66.1027 5.34933 66.156 5.104H67.436C67.4467 4.96533 67.452 4.50133 67.452 3.712L67.42 3.056C68.4547 2.71467 69.4413 2.544 70.38 2.544C70.4547 2.71467 70.492 3.01333 70.492 3.44C70.492 3.856 70.4227 4.41067 70.284 5.104H71.724C71.724 5.54133 71.6333 5.952 71.452 6.336ZM71.2263 9.104C71.2263 7.78133 71.6263 6.752 72.4263 6.016C73.2369 5.28 74.2343 4.912 75.4183 4.912C76.2396 4.912 76.8956 5.09333 77.3863 5.456C77.8876 5.808 78.1383 6.28267 78.1383 6.88C78.1383 7.31733 78.0049 7.70667 77.7383 8.048C77.4716 8.38933 77.1463 8.65067 76.7623 8.832C75.9516 9.19467 75.2476 9.41333 74.6503 9.488L74.2503 9.536C74.3676 10.24 74.7196 10.592 75.3063 10.592C75.5623 10.592 75.8449 10.5387 76.1543 10.432C76.4636 10.3147 76.7089 10.1973 76.8903 10.08L77.1623 9.92L77.6743 10.608C77.6743 10.608 77.6156 10.6667 77.4983 10.784C77.4343 10.848 77.2796 10.976 77.0343 11.168C76.7996 11.3493 76.5489 11.5093 76.2823 11.648C76.0263 11.7867 75.6956 11.9093 75.2903 12.016C74.8849 12.1333 74.4796 12.192 74.0743 12.192C73.1676 12.192 72.4636 11.9307 71.9622 11.408C71.4716 10.8747 71.2263 10.1067 71.2263 9.104ZM74.1863 8.48C74.4956 8.43733 74.8049 8.18667 75.1143 7.728C75.4236 7.25867 75.5783 6.86933 75.5783 6.56C75.5783 6.24 75.4876 6.08 75.3063 6.08C75.0396 6.08 74.7943 6.288 74.5703 6.704C74.3463 7.12 74.2183 7.712 74.1863 8.48ZM83.9193 9.84C83.9193 10.5013 83.6099 11.0613 82.9913 11.52C82.3833 11.968 81.6686 12.192 80.8473 12.192C80.0259 12.192 79.3486 12.0533 78.8153 11.776C78.2926 11.4987 78.0312 11.2373 78.0312 10.992C78.0312 10.736 78.1913 10.416 78.5113 10.032C78.8419 9.63733 79.1779 9.408 79.5193 9.344C80.0099 9.61067 80.4526 10.2027 80.8473 11.12C81.1566 11.12 81.3113 11.0187 81.3113 10.816C81.3113 10.6667 81.2686 10.528 81.1833 10.4C81.0979 10.272 81.0339 10.1707 80.9913 10.096C80.9486 10.0213 80.8739 9.92 80.7673 9.792C80.6606 9.65333 80.5806 9.552 80.5273 9.488C80.2606 9.168 80.0206 8.87467 79.8073 8.608C79.2953 7.968 79.0393 7.408 79.0393 6.928C79.0393 6.43733 79.1939 6.03733 79.5033 5.728C80.0366 5.184 80.8206 4.912 81.8553 4.912C82.5059 4.912 83.0233 5.04 83.4073 5.296C83.7913 5.54133 83.9833 5.91467 83.9833 6.416C83.9833 6.90667 83.6899 7.472 83.1033 8.112C83.6473 8.74133 83.9193 9.31733 83.9193 9.84ZM82.8473 6.912C82.9753 6.70933 83.0393 6.528 83.0393 6.368C83.0393 6.208 82.9699 6.08533 82.8313 6C82.6926 5.91467 82.5273 5.872 82.3353 5.872C82.1433 5.872 81.9939 5.92 81.8873 6.016C81.7913 6.10133 81.7433 6.21867 81.7433 6.368C81.7433 6.51733 81.9726 6.848 82.4313 7.36C82.5806 7.25333 82.7193 7.104 82.8473 6.912Z" fill="#0080F7" fill-opacity="0.8"/>
</svg>
