<svg width="77" height="13" viewBox="0 0 77 13" fill="none" xmlns="http://www.w3.org/2000/svg">
<path d="M2.72313 11.792C2.64846 12.0267 2.39779 12.144 1.97113 12.144C1.55513 12.144 1.13912 12 0.723125 11.712C1.05379 10.816 1.70979 9.328 2.69113 7.248C3.68313 5.15733 4.34446 3.6 4.67513 2.576C4.70713 2.448 4.72313 2.34133 4.72313 2.256C4.72313 2.16 4.68579 2.032 4.61113 1.872C4.53646 1.712 4.45646 1.584 4.37113 1.488L4.25913 1.344L4.32313 1.024C5.27246 0.767999 6.39779 0.639999 7.69913 0.639999L8.93113 0.704C9.03779 0.8 9.14446 1.05067 9.25113 1.456C9.35779 1.86133 9.42713 2.46933 9.45913 3.28C9.49113 4.09067 9.51246 5.61067 9.52313 7.84C9.53379 9.55733 9.74713 10.416 10.1631 10.416C10.2698 10.416 10.4991 10.3627 10.8511 10.256L11.0111 10.208L11.3471 11.12C10.9098 11.4507 10.3978 11.712 9.81113 11.904C9.22446 12.096 8.69646 12.192 8.22713 12.192C7.54446 12.192 7.07513 11.984 6.81913 11.568C6.57379 11.1413 6.45113 10.5973 6.45113 9.936C6.45113 9.264 6.45646 8.8 6.46713 8.544C6.26446 8.50133 5.86979 8.48 5.28313 8.48C4.69646 8.48 4.18979 8.53867 3.76313 8.656C3.36846 9.712 3.02179 10.7573 2.72313 11.792ZM6.53113 7.2C6.58446 6.272 6.61113 5.33867 6.61113 4.4C6.61113 3.46133 6.55779 2.77867 6.45113 2.352C6.34446 2.352 6.26979 2.36267 6.22713 2.384C5.99246 3.09867 5.36313 4.704 4.33913 7.2H6.53113ZM11.7684 10.176L11.9764 6.832C11.9764 6.544 11.9337 6.32 11.8484 6.16C11.7737 5.98933 11.6137 5.75467 11.3684 5.456L11.4324 5.216C12.2537 5.024 12.9364 4.928 13.4804 4.928C14.0244 4.928 14.403 5.056 14.6164 5.312C14.8404 5.55733 14.9524 5.90933 14.9524 6.368C14.9524 6.82667 14.867 7.49867 14.6964 8.384C14.5364 9.26933 14.4564 9.856 14.4564 10.144C14.4564 10.4213 14.5364 10.56 14.6964 10.56C14.9524 10.56 15.283 10.32 15.6884 9.84C16.1044 9.34933 16.3764 8.86933 16.5044 8.4L15.3204 7.264C15.363 6.816 15.459 6.4 15.6084 6.016C15.7577 5.62133 15.891 5.344 16.0084 5.184L16.2004 4.928C17.491 4.928 18.1364 5.46133 18.1364 6.528C18.1364 7.22133 17.923 8.00533 17.4964 8.88C17.0804 9.744 16.4937 10.512 15.7364 11.184C14.979 11.856 14.195 12.192 13.3844 12.192C12.307 12.192 11.7684 11.52 11.7684 10.176ZM18.1325 9.104C18.1325 7.78133 18.5325 6.752 19.3325 6.016C20.1432 5.28 21.1405 4.912 22.3245 4.912C23.1458 4.912 23.8018 5.09333 24.2925 5.456C24.7938 5.808 25.0445 6.28267 25.0445 6.88C25.0445 7.31733 24.9112 7.70667 24.6445 8.048C24.3778 8.38933 24.0525 8.65067 23.6685 8.832C22.8578 9.19467 22.1538 9.41333 21.5565 9.488L21.1565 9.536C21.2738 10.24 21.6258 10.592 22.2125 10.592C22.4685 10.592 22.7512 10.5387 23.0605 10.432C23.3698 10.3147 23.6152 10.1973 23.7965 10.08L24.0685 9.92L24.5805 10.608C24.5805 10.608 24.5218 10.6667 24.4045 10.784C24.3405 10.848 24.1858 10.976 23.9405 11.168C23.7058 11.3493 23.4552 11.5093 23.1885 11.648C22.9325 11.7867 22.6018 11.9093 22.1965 12.016C21.7912 12.1333 21.3858 12.192 20.9805 12.192C20.0738 12.192 19.3698 11.9307 18.8685 11.408C18.3778 10.8747 18.1325 10.1067 18.1325 9.104ZM21.0925 8.48C21.4018 8.43733 21.7112 8.18667 22.0205 7.728C22.3298 7.25867 22.4845 6.86933 22.4845 6.56C22.4845 6.24 22.3938 6.08 22.2125 6.08C21.9458 6.08 21.7005 6.288 21.4765 6.704C21.2525 7.12 21.1245 7.712 21.0925 8.48ZM29.5813 11.104C29.2399 11.4027 28.7919 11.6587 28.2373 11.872C27.6826 12.0853 27.1759 12.192 26.7173 12.192C26.2693 12.192 25.9013 12.064 25.6133 11.808C25.3253 11.5413 25.1813 11.1627 25.1813 10.672C25.1813 10.1813 25.4479 8.816 25.9813 6.576C26.5253 4.32533 26.7973 2.656 26.7973 1.568C26.7973 1.33333 26.7653 1.03467 26.7013 0.672C27.7039 0.394666 28.6746 0.256 29.6133 0.256C29.7093 0.426666 29.7573 0.703999 29.7573 1.088C29.7573 1.81333 29.4853 3.39733 28.9413 5.84C28.4079 8.272 28.1413 9.67467 28.1413 10.048C28.1413 10.4213 28.2053 10.608 28.3333 10.608C28.4399 10.608 28.6693 10.5387 29.0213 10.4L29.1973 10.32L29.5813 11.104ZM34.3313 11.104C33.9899 11.4027 33.5419 11.6587 32.9873 11.872C32.4326 12.0853 31.9259 12.192 31.4673 12.192C31.0193 12.192 30.6513 12.064 30.3633 11.808C30.0753 11.5413 29.9313 11.1627 29.9313 10.672C29.9313 10.1813 30.1979 8.816 30.7313 6.576C31.2753 4.32533 31.5473 2.656 31.5473 1.568C31.5473 1.33333 31.5153 1.03467 31.4513 0.672C32.4539 0.394666 33.4246 0.256 34.3633 0.256C34.4593 0.426666 34.5073 0.703999 34.5073 1.088C34.5073 1.81333 34.2353 3.39733 33.6913 5.84C33.1579 8.272 32.8913 9.67467 32.8913 10.048C32.8913 10.4213 32.9553 10.608 33.0833 10.608C33.1899 10.608 33.4193 10.5387 33.7713 10.4L33.9473 10.32L34.3313 11.104ZM42.5693 5.52C42.3453 6.21333 42.1533 7.04 41.9933 8C41.8333 8.94933 41.7533 9.616 41.7533 10C41.7533 10.3733 41.8119 10.56 41.9293 10.56L42.7292 10.336L43.0173 11.136C42.6759 11.4027 42.2386 11.648 41.7053 11.872C41.1826 12.0853 40.7186 12.192 40.3133 12.192C39.6199 12.192 39.1826 11.8933 39.0013 11.296C38.1586 11.8933 37.4119 12.192 36.7613 12.192C36.1213 12.192 35.6253 11.9573 35.2733 11.488C34.9213 11.0187 34.7453 10.3467 34.7453 9.472C34.7453 8.26667 35.0546 7.20533 35.6733 6.288C36.2919 5.37067 37.1079 4.912 38.1213 4.912C38.6759 4.912 39.2413 5.06667 39.8173 5.376C39.9026 5.184 39.9719 5.04533 40.0253 4.96C40.7933 4.96 41.6413 5.14667 42.5693 5.52ZM37.7533 9.28C37.7533 9.81333 37.7906 10.1493 37.8653 10.288C37.9399 10.4267 38.0786 10.496 38.2812 10.496C38.4839 10.496 38.6813 10.416 38.8733 10.256C38.9159 9.01867 39.1186 7.72267 39.4813 6.368C39.3213 6.272 39.1346 6.224 38.9213 6.224C38.7186 6.224 38.5319 6.34133 38.3613 6.576C38.2013 6.81067 38.0786 7.104 37.9933 7.456C37.8333 8.128 37.7533 8.736 37.7533 9.28ZM43.6133 12.096H43.3413C43.3413 11.4347 43.4906 10.432 43.7893 9.088C44.0986 7.744 44.2533 6.97067 44.2533 6.768C44.2533 6.56533 44.2053 6.368 44.1093 6.176C44.0133 5.984 43.9173 5.84 43.8213 5.744L43.6773 5.6L43.7093 5.36C44.3386 5.15733 45.4373 5.056 47.0052 5.056C47.1119 5.30133 47.1866 5.55733 47.2293 5.824C48.1999 5.22667 49.0159 4.928 49.6773 4.928C50.1253 4.928 50.4773 5.07733 50.7333 5.376C50.9893 5.664 51.1173 6.016 51.1173 6.432C51.1173 6.83733 50.9999 7.49333 50.7653 8.4C50.5306 9.30667 50.4133 9.89867 50.4133 10.176C50.4133 10.4427 50.4506 10.576 50.5253 10.576L51.3733 10.352L51.6613 11.152C51.3199 11.408 50.8719 11.648 50.3173 11.872C49.7733 12.0853 49.2719 12.192 48.8133 12.192C47.9066 12.192 47.4533 11.7227 47.4533 10.784C47.4533 10.3787 47.5653 9.71733 47.7893 8.8C48.0133 7.88267 48.1253 7.312 48.1253 7.088C48.1253 6.85333 48.0506 6.736 47.9013 6.736C47.7093 6.736 47.4533 6.84267 47.1333 7.056C47.0906 7.248 46.9839 7.712 46.8133 8.448C46.4719 9.99467 46.3013 11.1093 46.3013 11.792C45.7786 11.9947 44.8826 12.096 43.6133 12.096ZM51.9606 9.104C51.9606 7.78133 52.3606 6.752 53.1606 6.016C53.9713 5.28 54.9686 4.912 56.1526 4.912C56.974 4.912 57.63 5.09333 58.1206 5.456C58.622 5.808 58.8726 6.28267 58.8726 6.88C58.8726 7.31733 58.7393 7.70667 58.4726 8.048C58.206 8.38933 57.8806 8.65067 57.4966 8.832C56.686 9.19467 55.982 9.41333 55.3846 9.488L54.9846 9.536C55.102 10.24 55.454 10.592 56.0406 10.592C56.2966 10.592 56.5793 10.5387 56.8886 10.432C57.198 10.3147 57.4433 10.1973 57.6246 10.08L57.8966 9.92L58.4086 10.608C58.4086 10.608 58.35 10.6667 58.2326 10.784C58.1686 10.848 58.014 10.976 57.7686 11.168C57.534 11.3493 57.2833 11.5093 57.0166 11.648C56.7606 11.7867 56.43 11.9093 56.0246 12.016C55.6193 12.1333 55.214 12.192 54.8086 12.192C53.902 12.192 53.198 11.9307 52.6966 11.408C52.206 10.8747 51.9606 10.1067 51.9606 9.104ZM54.9206 8.48C55.23 8.43733 55.5393 8.18667 55.8486 7.728C56.158 7.25867 56.3126 6.86933 56.3126 6.56C56.3126 6.24 56.222 6.08 56.0406 6.08C55.774 6.08 55.5286 6.288 55.3046 6.704C55.0806 7.12 54.9526 7.712 54.9206 8.48ZM64.6414 12.192C63.98 12.192 63.5534 11.936 63.3614 11.424C62.5507 11.936 61.8254 12.192 61.1854 12.192C60.556 12.192 60.044 11.9787 59.6494 11.552C59.2654 11.1147 59.0734 10.4107 59.0734 9.44C59.0734 8.17067 59.3934 7.09867 60.0334 6.224C60.684 5.34933 61.5214 4.912 62.5454 4.912C63.0467 4.912 63.548 5.02933 64.0494 5.264C64.444 3.46133 64.6414 2.16533 64.6414 1.376C64.6414 1.14133 64.6254 0.906666 64.5934 0.672C65.5854 0.394666 66.54 0.256 67.4574 0.256C67.5427 0.394666 67.5854 0.725333 67.5854 1.248C67.5854 1.76 67.34 3.14667 66.8494 5.408C66.3694 7.66933 66.1294 9.184 66.1294 9.952C66.1294 10.3573 66.1987 10.56 66.3374 10.56L67.0254 10.336L67.3134 11.152C66.3747 11.8453 65.484 12.192 64.6414 12.192ZM62.5454 10.576C62.7374 10.576 62.9507 10.512 63.1854 10.384V10.368C63.228 9.504 63.436 8.144 63.8094 6.288C63.596 6.224 63.4414 6.192 63.3454 6.192C63.1214 6.192 62.924 6.304 62.7534 6.528C62.5827 6.752 62.4494 7.04 62.3534 7.392C62.172 8.11733 62.0814 8.832 62.0814 9.536C62.0814 10.2293 62.236 10.576 62.5454 10.576ZM75.5693 5.52C75.3453 6.21333 75.1533 7.04 74.9933 8C74.8333 8.94933 74.7533 9.616 74.7533 10C74.7533 10.3733 74.8119 10.56 74.9293 10.56L75.7292 10.336L76.0173 11.136C75.6759 11.4027 75.2386 11.648 74.7053 11.872C74.1826 12.0853 73.7186 12.192 73.3133 12.192C72.6199 12.192 72.1826 11.8933 72.0013 11.296C71.1586 11.8933 70.4119 12.192 69.7613 12.192C69.1213 12.192 68.6253 11.9573 68.2733 11.488C67.9213 11.0187 67.7453 10.3467 67.7453 9.472C67.7453 8.26667 68.0546 7.20533 68.6733 6.288C69.2919 5.37067 70.1079 4.912 71.1213 4.912C71.6759 4.912 72.2413 5.06667 72.8173 5.376C72.9026 5.184 72.9719 5.04533 73.0253 4.96C73.7933 4.96 74.6413 5.14667 75.5693 5.52ZM70.7533 9.28C70.7533 9.81333 70.7906 10.1493 70.8653 10.288C70.9399 10.4267 71.0786 10.496 71.2812 10.496C71.4839 10.496 71.6813 10.416 71.8733 10.256C71.9159 9.01867 72.1186 7.72267 72.4813 6.368C72.3213 6.272 72.1346 6.224 71.9213 6.224C71.7186 6.224 71.5319 6.34133 71.3613 6.576C71.2013 6.81067 71.0786 7.104 70.9933 7.456C70.8333 8.128 70.7533 8.736 70.7533 9.28Z" fill="#0080F7" fill-opacity="0.8"/>
</svg>
